<?xml version="1.0" encoding="UTF-8"?>
<!-- Fri May 30 12:06:20 2025 Generated by QCAD 3.31.2 SVG Exporter -->
<svg width="5.907in" height="1.3216in" viewBox="62.0994 -82.5488 5.907 1.3216" version="1.1" xmlns="http://www.w3.org/2000/svg" style="stroke-linecap:round;stroke-linejoin:round;fill:none">
    <g transform="scale(1,-1)">
        <!-- Text: EXCOM -->
        <g>
            <path d="M63.4257,82.2546 L63.4257,82.0646 L62.6267,82.0646 C62.5867,82.0646 62.5817,82.0346 62.5817,82.0026 L62.5817,81.9786 L63.4257,81.9786 L63.4257,81.7876 L62.5827,81.7876 L62.5827,81.7706 C62.5827,81.7346 62.5877,81.7076 62.6267,81.7076 L63.4257,81.7076 L63.4257,81.5146 L62.6267,81.5146 C62.4857,81.5146 62.3897,81.6076 62.3897,81.7496 L62.3897,82.0176 C62.3897,82.1496 62.4917,82.2536 62.6267,82.2536 Z M63.8197,81.8816 L63.5047,81.5146 L63.7477,81.5146 L63.9417,81.7386 C63.9587,81.7586 64.0107,81.8056 64.0207,81.8396 L64.0207,81.9246 C64.0107,81.9596 63.9587,82.0116 63.9417,82.0316 L63.7477,82.2526 L63.5047,82.2526 Z M64.2227,81.8816 L64.5377,82.2526 L64.2947,82.2526 L64.1007,82.0316 C64.0837,82.0116 64.0317,81.9596 64.0217,81.9246 L64.0217,81.8396 C64.0317,81.8056 64.0837,81.7586 64.1007,81.7386 L64.2947,81.5146 L64.5377,81.5146 Z M64.8566,81.7096 C64.8176,81.7096 64.8126,81.7356 64.8126,81.7716 L64.8126,82.0176 C64.8126,82.0416 64.8126,82.0656 64.8576,82.0656 L65.6706,82.0656 L65.6706,82.2546 L64.8586,82.2546 C64.7236,82.2546 64.6326,82.1626 64.6216,82.0426 L64.6216,81.7396 C64.6216,81.6016 64.7196,81.5156 64.8576,81.5156 L65.6726,81.5156 L65.6726,81.7096 Z M66.8124,82.0196 C66.8124,82.1576 66.7324,82.2546 66.5774,82.2546 L66.0074,82.2546 C65.8724,82.2546 65.7814,82.1616 65.7704,82.0416 L65.7704,81.7386 C65.7704,81.6006 65.8684,81.5146 66.0064,81.5146 L66.5774,81.5146 C66.7194,81.5146 66.8124,81.5956 66.8124,81.7386 Z M66.6194,81.7606 C66.6194,81.7336 66.6194,81.7086 66.5754,81.7086 L66.0054,81.7086 C65.9664,81.7086 65.9614,81.7346 65.9614,81.7706 L65.9614,82.0166 C65.9614,82.0406 65.9614,82.0646 66.0064,82.0646 L66.5774,82.0646 C66.6184,82.0646 66.6194,82.0336 66.6194,82.0026 Z M67.0903,81.5146 L66.9123,81.5146 L66.9123,82.0566 C66.9123,82.1526 66.9893,82.2546 67.0903,82.2546 C67.1933,82.2546 67.2683,82.1426 67.3033,82.0566 L67.4573,81.6816 L67.6143,82.0566 C67.6493,82.1416 67.7213,82.2546 67.8273,82.2546 C67.9353,82.2546 68.0063,82.1586 68.0063,82.0566 L68.0063,81.5146 L67.8273,81.5146 L67.8273,82.0566 L67.6503,81.6696 C67.6013,81.5626 67.5643,81.4956 67.4573,81.4956 C67.3633,81.4956 67.3033,81.5856 67.2653,81.6706 L67.0903,82.0566 Z" style="fill:#000000;fill-rule:nonzero;"/>
        </g>
        <!-- Hatch -->
        <path d="M62.618,81.2272 L67.7653,81.2272 A0.238828,0.238828 0 0 1 68.0041,81.466 L68.0041,81.5147 L67.8297,81.5147 L67.8297,81.466 A0.0486642,0.0486642 0 0 0 67.781,81.4174 L67.781,81.4172 L62.618,81.4172 A0.32867,0.32867 0 0 0 62.2894,81.7459 L62.2894,82.0301 A0.32867,0.32867 0 0 0 62.618,82.3588 L68.005,82.3588 L68.005,82.5488 L62.618,82.5488 A0.51867,0.51867 0 0 1 62.0994,82.0301 L62.0994,81.7459 A0.51867,0.51867 0 0 1 62.618,81.2272" style="fill:#000000;fill-rule:evenodd;"/>
    </g>
</svg>
